<svg id="Layer_1" data-name="Layer 1" xmlns="http://www.w3.org/2000/svg" width="1.4in" height="1.4in" viewBox="0 0 100 100"><title>treats</title><path d="M46.8,5C23.5,5,5.2,24.3,5.2,48.9S23.9,95,46.8,95c11.5,0,23.5-5.1,32.9-14S94.8,60.3,94.8,48.9C94.8,25.9,71.9,5,46.8,5Zm0,85C26.6,90,10.2,71.6,10.2,48.9S26.3,10,46.8,10c22.1,0,43,18.9,43,38.9S68.5,90,46.8,90Z"/><path d="M42.5,42.2c-2.6,0-4.6,2.3-4.6,5.3s1.9,4.9,4.6,4.9a4.6,4.6,0,0,0,4.7-4.9C47.2,44.5,45.1,42.2,42.5,42.2Z"/><path d="M60.2,22.8H58.8a5.7,5.7,0,0,0-4.3,1.6l-.3.3a5.6,5.6,0,0,0-2.2,4,6.5,6.5,0,0,0,2.3,4.4,6.3,6.3,0,0,0,4.4,2.1,5.8,5.8,0,0,0,4.1-2.1L63,33a5.7,5.7,0,0,0,1.6-4.3c0-.2,0-.4,0-.5A5.2,5.2,0,0,0,63.5,24,4.5,4.5,0,0,0,60.2,22.8Z"/><path d="M37.5,27.7a5.2,5.2,0,0,0,4.9-5.2c0-2.7-2-4.5-4.9-4.5s-4.9,1.9-4.9,4.5A5.1,5.1,0,0,0,37.5,27.7Z"/><path d="M77.5,35a4.9,4.9,0,0,0-4.9,5,5.1,5.1,0,0,0,4.9,5.2A5.5,5.5,0,0,0,82.9,40,5.3,5.3,0,0,0,77.5,35Z"/><path d="M22.5,40.1A4.7,4.7,0,0,0,17.7,45a4.8,4.8,0,0,0,4.8,5,5,5,0,0,0,5-5A4.9,4.9,0,0,0,22.5,40.1Z"/><path d="M79.6,62.4a6.8,6.8,0,0,0-.8-3.6A8.2,8.2,0,0,0,72.5,55a7.4,7.4,0,0,0-3.8.9,7.6,7.6,0,0,0-2.8,2.7,7.7,7.7,0,0,0-1,3.8,7,7,0,0,0,1.2,3.6h.1a6.9,6.9,0,0,0,2.8,2.5h.2a6.4,6.4,0,0,0,3.4,1.1,7.3,7.3,0,0,0,3.8-.8A7.5,7.5,0,0,0,79,66.2a6.1,6.1,0,0,0,.7-3.4Z"/><path d="M57.5,70.1c-2.6,0-5.4,2-5.4,4.9a5.4,5.4,0,0,0,10.8,0C62.9,72.1,60.1,70.1,57.5,70.1Z"/><path d="M38,66.8a6.1,6.1,0,0,0-4.2-2.2,6.9,6.9,0,0,0-6.6,6.7A4.9,4.9,0,0,0,29.3,75l.4.3.3.3a5.2,5.2,0,0,0,3.8,2,5.2,5.2,0,0,0,3.9-2l.3-.3a5.6,5.6,0,0,0,1.9-4.1,5.9,5.9,0,0,0-1.7-4.3Z"/></svg>