<svg id="Layer_1" data-name="Layer 1" xmlns="http://www.w3.org/2000/svg" width="2.2in" height="1.9in" viewBox="0 0 158 140"><title>chocolate-white</title><path d="M149.5,78l-6.8-19.9-.3-.6h0l-.6-.7-.2-.2-.6-.4H141L78.1,18.4a4,4,0,0,0-4.2,0L15.9,54h-.1l-.6.5-.2.2-.4.6v.2h-.1L5.5,73.7A4,4,0,0,0,7.1,79l74.6,41.8a4,4,0,0,0,4.1-.1l62-38A4,4,0,0,0,149.5,78ZM76.1,26.6l55.1,32.8-48.6,30L25.9,57.3Zm7.5,86L14.4,73.9,19.7,63l61,34.6a4,4,0,0,0,4.1-.1l52-32.1,4.1,12.1Z" fill="#fff"/><path d="M69.3,48.6l8.1-5.1,8.5,5.7a4,4,0,0,0,4.5-6.7L79.7,35.4a4,4,0,0,0-4.4-.1L65,41.8a4,4,0,0,0,4.3,6.8Z" fill="#fff"/><path d="M90.2,77.7a4,4,0,0,0,2.2-7.4L81.7,63.1a4,4,0,0,0-4.4-.1L67.3,69.3a4,4,0,0,0,4.2,6.8l7.8-4.9L87.9,77A4,4,0,0,0,90.2,77.7Z" fill="#fff"/><path d="M86.9,61.6a4,4,0,0,0,5.6,1l7.4-5.1,8.4,5.6a4,4,0,0,0,4.5-6.7l-10.7-7.2a4,4,0,0,0-4.5,0L87.9,56A4,4,0,0,0,86.9,61.6Z" fill="#fff"/><path d="M70.4,62a4,4,0,0,0-1.1-5.6L58.6,49.3a4,4,0,0,0-4.4-.1L44,55.6a4,4,0,0,0,4.3,6.8l8.1-5.1,8.5,5.7A4,4,0,0,0,70.4,62Z" fill="#fff"/></svg>