<svg id="Layer_1" data-name="Layer 1" xmlns="http://www.w3.org/2000/svg" width="2.2in" height="2.2in" viewBox="0 0 161.3 161.3"><title>specials</title><path d="M121.5,83.8c-4.8-10.9-12.3-20.3-24.2-23.5,5.8-3.2,12.8-9,12.4-16.4-.1-2.1-.8-4.1-1-6.1s3-15,1-16.3-6.3-1.3-8.6-1.5-6.2,1.4-9.1,3.3c-6.8,4.5-10.2-3.2-13.5-8-1.8-2.7-6.3,2-8,2.9s-4.6,2.1-7,.9a13.1,13.1,0,0,1-3.5-2.8c-1-1-2.1-3.3-3.7-3.2-4,.1-3.5,5.4-3.4,7.9.1,4.7-.1,9.4-.4,14s-1.1,8.1-.1,12.1c1.9,6.9,7.9,11.7,14.1,14.6-16.1,5.6-25.6,18-31,33.7-4.2,12.3-6.4,25.5-8.5,38.3-.4,2.4-.8,5-.3,7.4s6,3.6,8.7,4c10,1.4,20.2,2.2,30.2,2.9s46.9.3,57-3.6c3.8-1.5,6.9-3,7.5-7.3C130.8,130.6,127.3,97,121.5,83.8ZM59.2,47.2C57,42.8,58,36.1,58.6,33l.4-2a24.8,24.8,0,0,0,.2-5.9c5,3.7,11.3-.2,15.6-3.3,2.2,3.4,5.5,9.7,10.2,9.8,2.3.1,5.2-1.4,7.3-2.4a27.7,27.7,0,0,0,3.9-2.4c-.1.1,1.1-1.1.9-1.1,2.3.1,5.1,1,7.5,1.4-.6,3.7-2.2,7.4-1.9,11.2s.9,6.8-.7,10.3c-2.9,6.1-10,8.5-16.3,9.1a17.7,17.7,0,0,0,6.3-8.9,11,11,0,0,0,.5-5.1c-.7-3.2-2.3-.3-2.8,1.1a31.1,31.1,0,0,1-4.7,8.5c-.9,1.4-2.4,4.6-4.1,4.5h-2l-1.2-3.1c-.6-1.6-1.1-3.2-1.7-4.7-1.7-3.4-2.5-8.1-3.2-11.8-.4-1.9-.7-3.9-1.1-5.8s-2.1-1.2-2.4.9a31.7,31.7,0,0,0,1.5,12.8,23.6,23.6,0,0,0,1.8,5,37.2,37.2,0,0,0,2.2,4.2c.2.3,1.4,1.6,1.4,2.1C69.6,56.3,62.3,53.3,59.2,47.2ZM76.9,65.7c6.8-.8,14.2-.9,20.7,1.6,10.3,4,16.9,15,20.8,25.8.4,1.4.7,2.7,1.1,4.1-4.7-4.2-11.2-6.7-16.7-9.5-3.9-1.9-8-3.5-12-5.1l-12.2-5c-6.8-2.7-14.8-5.5-22.2-4.6C62.4,68.8,69.6,66.6,76.9,65.7ZM53.2,75.4c-.3.2,0-.1,1.9-1.6,1.7.9,4,.8,5.8,1.2a63.2,63.2,0,0,1,6.8,2.1c4.2,1.5,8.4,3.2,12.5,5l13.7,5.9c5.8,2.4,11.6,4.6,17.3,7.2l5.6,2.5a19.8,19.8,0,0,0,3.3,1.4q.6,2.4,1,4.8c1.2,6,1.9,12,2.7,18.1-3.3-2-7.8-2.8-11.4-4l-10.2-3.7c-6.1-2.2-12.4-4.6-18.3-7.3s-11.7-5.2-17.4-8C62.3,97.2,58.1,95.2,54,93s-6.3-4.1-9.5-4.6A32,32,0,0,1,53.2,75.4Zm5.9,65.8L44,139.5l-7.5-.8c-1.1-.1-2.9.2-3.5-1s-.3-5.7,0-8c.7-4.5,1.8-8.9,2.9-13.3.4,1.9,4.7,4.1,6.1,4.9l10,6.1a128.4,128.4,0,0,0,17.2,8.5,191.6,191.6,0,0,0,19.2,6.7A211.4,211.4,0,0,1,59.1,141.2Zm64-3.1c.7-1.5-.4-9.6-3.7-7.2-1.3.9.3,7.6,1.4,8.5a23.7,23.7,0,0,1-4.1.9c.6-1.5.6-10.6-3-8.7-1.3.7-.6,3.2-.4,4.3s.1,1.8.2,2.8.1,1.3,0,2l-2.8.2c.3-1.7.2-3.7-1.5-4.6s-2.3,3.7-2.1,4.9l-2.8.2c.2-1.6-2-6.5-3.8-3.8-.5.8,0,1.8-.1,2.7a12.4,12.4,0,0,0,.2,1.4,9.4,9.4,0,0,1-3.7-.1c-6.6-1.9-13-4.5-19.4-6.9s-12.1-5-18.2-7.6-8.9-4.4-13.4-6.6l-3.4-1.6c-1.1-.5-5.3-3.4-6.4-2.7,2.4-9.1,5.1-18.3,8.2-27.2,2.1,3.2,6.7,5.2,9.8,7.2s7.8,4.6,11.9,6.8,11,5.4,16.6,8a145.9,145.9,0,0,0,19.6,7.3l9.7,2.8c3.3.9,8.7,3.1,12.1,1.8C124.5,127.1,125.5,135.4,123,138Z" fill="#533a25"/><path d="M67.7,93.4c.5-.4.3-.1,0,0,2.2-1.2.2-4.1-1.8-3S66.1,94.9,67.7,93.4Z" fill="#533a25"/><path d="M77.3,88.7c2.4-.3,1.7-3.7-.4-3.9S74.6,89.1,77.3,88.7Z" fill="#533a25"/><path d="M85,92.8c2.2-1.2.2-4.1-1.8-3S82.7,94,85,92.8Z" fill="#533a25"/><path d="M84.5,99.7c.2,0,.5,0,0,0s-2,2.5-.1,2.6S86.2,99.9,84.5,99.7Z" fill="#533a25"/><path d="M76.6,98.2h0c2.2-.9.7-4-1.4-3.7S74.1,99.2,76.6,98.2Z" fill="#533a25"/><path d="M56.4,88.4c2.3-.3,1.7-3.9-.6-3.5S54.2,88.7,56.4,88.4Z" fill="#533a25"/><path d="M39.2,129.8c-2.4.5-1.6,4.2.9,3.7S41.5,129.3,39.2,129.8Z" fill="#533a25"/><path d="M49.5,132.8c-1.7-.7-2.7,2-1,2.7S51.1,133.4,49.5,132.8Z" fill="#533a25"/><path d="M111.8,108.9c2.5-.3,1.7-3.9-.7-3.6S108.9,109.2,111.8,108.9Z" fill="#533a25"/></svg>