<svg style="position: absolute; width: 0; height: 0; overflow: hidden;" version="1.1" xmlns="http://www.w3.org/2000/svg" xmlns:xlink="http://www.w3.org/1999/xlink">
<defs>
<symbol id="icon-chocolate-white" viewBox="0 0 37 32">
<title>chocolate-white</title>
<path class="path1" fill="#fff" d="M35.059 17.876l-1.595-4.667-0.070-0.141-0.141-0.164-0.047-0.047-0.141-0.094-14.751-8.864c-0.14-0.088-0.31-0.14-0.492-0.14s-0.352 0.052-0.496 0.142l-13.598 8.346h-0.023l-0.141 0.117-0.047 0.047-0.094 0.141v0.047h-0.023l-2.111 4.268c-0.064 0.124-0.102 0.27-0.102 0.426 0 0.349 0.19 0.653 0.473 0.815l17.499 9.805c0.133 0.076 0.292 0.121 0.461 0.121 0.186 0 0.359-0.054 0.504-0.147l14.536-8.909c0.271-0.168 0.449-0.463 0.449-0.8 0-0.108-0.018-0.212-0.052-0.309zM17.846 5.822l12.922 7.692-11.397 7.035-13.297-7.528zM19.605 25.99l-16.228-9.076 1.243-2.556 14.305 8.114c0.133 0.076 0.292 0.121 0.461 0.121 0.186 0 0.359-0.054 0.504-0.147l12.191-7.526 0.962 2.838z"></path>
<path class="path2" fill="#fff" d="M16.252 10.981l1.9-1.196 1.993 1.337c0.148 0.101 0.331 0.161 0.528 0.161 0.523 0 0.946-0.424 0.946-0.946 0-0.326-0.165-0.613-0.415-0.784l-2.513-1.667c-0.149-0.104-0.334-0.167-0.534-0.167-0.185 0-0.357 0.053-0.502 0.145l-2.412 1.522c-0.266 0.17-0.439 0.463-0.439 0.797 0 0.521 0.422 0.943 0.943 0.943 0.187 0 0.361-0.054 0.508-0.148z"></path>
<path class="path3" fill="#fff" d="M21.153 17.806c0.007 0 0.014 0 0.022 0 0.518 0 0.938-0.42 0.938-0.938 0-0.335-0.176-0.629-0.44-0.795l-2.513-1.691c-0.149-0.104-0.334-0.167-0.534-0.167-0.185 0-0.357 0.053-0.502 0.145l-2.341 1.475c-0.249 0.171-0.411 0.455-0.411 0.776 0 0.518 0.42 0.938 0.938 0.938 0.168 0 0.326-0.044 0.463-0.122l1.825-1.147 2.017 1.36c0.148 0.103 0.332 0.164 0.53 0.164 0.003 0 0.006-0 0.010-0z"></path>
<path class="path4" fill="#fff" d="M20.379 14.030c0.171 0.247 0.453 0.406 0.773 0.406 0.203 0 0.39-0.064 0.544-0.173l1.733-1.194 1.97 1.313c0.148 0.101 0.331 0.161 0.528 0.161 0.523 0 0.946-0.424 0.946-0.946 0-0.326-0.165-0.613-0.415-0.784l-2.513-1.691c-0.148-0.102-0.331-0.162-0.528-0.162s-0.38 0.061-0.531 0.165l-2.272 1.593c-0.247 0.171-0.406 0.453-0.406 0.773 0 0.203 0.064 0.39 0.173 0.544z"></path>
<path class="path5" fill="#fff" d="M16.51 14.124c0.103-0.148 0.164-0.332 0.164-0.53 0-0.326-0.166-0.613-0.419-0.781l-2.513-1.667c-0.149-0.104-0.334-0.167-0.534-0.167-0.185 0-0.357 0.053-0.502 0.145l-2.388 1.499c-0.266 0.17-0.439 0.463-0.439 0.797 0 0.521 0.422 0.943 0.943 0.943 0.187 0 0.361-0.054 0.508-0.148l1.896-1.194 1.993 1.337c0.147 0.101 0.329 0.161 0.525 0.161 0.314 0 0.593-0.155 0.763-0.392z"></path>
</symbol>
<symbol id="icon-chocolate" viewBox="0 0 37 32">
<title>chocolate</title>
<path class="path1" fill="#533a25" d="M35.059 17.876l-1.595-4.667-0.070-0.141-0.141-0.164-0.047-0.047-0.141-0.094-14.751-8.864c-0.14-0.088-0.31-0.14-0.492-0.14s-0.352 0.052-0.496 0.142l-13.598 8.346h-0.023l-0.141 0.117-0.047 0.047-0.094 0.141v0.047h-0.023l-2.111 4.268c-0.064 0.124-0.102 0.27-0.102 0.426 0 0.349 0.19 0.653 0.473 0.815l17.499 9.805c0.133 0.076 0.292 0.121 0.461 0.121 0.186 0 0.359-0.054 0.504-0.147l14.536-8.909c0.271-0.168 0.449-0.463 0.449-0.8 0-0.108-0.018-0.212-0.052-0.309zM17.846 5.822l12.922 7.692-11.397 7.035-13.297-7.528zM19.605 25.99l-16.228-9.076 1.243-2.556 14.305 8.114c0.133 0.076 0.292 0.121 0.461 0.121 0.186 0 0.359-0.054 0.504-0.147l12.191-7.526 0.962 2.838z"></path>
<path class="path2" fill="#533a25" d="M16.252 10.981l1.9-1.196 1.993 1.337c0.148 0.101 0.331 0.161 0.528 0.161 0.523 0 0.946-0.424 0.946-0.946 0-0.326-0.165-0.613-0.415-0.784l-2.513-1.667c-0.149-0.104-0.334-0.167-0.534-0.167-0.185 0-0.357 0.053-0.502 0.145l-2.412 1.522c-0.266 0.17-0.439 0.463-0.439 0.797 0 0.521 0.422 0.943 0.943 0.943 0.187 0 0.361-0.054 0.508-0.148z"></path>
<path class="path3" fill="#533a25" d="M21.153 17.806c0.007 0 0.014 0 0.022 0 0.518 0 0.938-0.42 0.938-0.938 0-0.335-0.176-0.629-0.44-0.795l-2.513-1.691c-0.149-0.104-0.334-0.167-0.534-0.167-0.185 0-0.357 0.053-0.502 0.145l-2.341 1.475c-0.249 0.171-0.411 0.455-0.411 0.776 0 0.518 0.42 0.938 0.938 0.938 0.168 0 0.326-0.044 0.463-0.122l1.825-1.147 2.017 1.36c0.148 0.103 0.332 0.164 0.53 0.164 0.003 0 0.006-0 0.010-0z"></path>
<path class="path4" fill="#533a25" d="M20.379 14.030c0.171 0.247 0.453 0.406 0.773 0.406 0.203 0 0.39-0.064 0.544-0.173l1.733-1.194 1.97 1.313c0.148 0.101 0.331 0.161 0.528 0.161 0.523 0 0.946-0.424 0.946-0.946 0-0.326-0.165-0.613-0.415-0.784l-2.513-1.691c-0.148-0.102-0.331-0.162-0.528-0.162s-0.38 0.061-0.531 0.165l-2.272 1.593c-0.247 0.171-0.406 0.453-0.406 0.773 0 0.203 0.064 0.39 0.173 0.544z"></path>
<path class="path5" fill="#533a25" d="M16.51 14.124c0.103-0.148 0.164-0.332 0.164-0.53 0-0.326-0.166-0.613-0.419-0.781l-2.513-1.667c-0.149-0.104-0.334-0.167-0.534-0.167-0.185 0-0.357 0.053-0.502 0.145l-2.388 1.499c-0.266 0.17-0.439 0.463-0.439 0.797 0 0.521 0.422 0.943 0.943 0.943 0.187 0 0.361-0.054 0.508-0.148l1.896-1.194 1.993 1.337c0.147 0.101 0.329 0.161 0.525 0.161 0.314 0 0.593-0.155 0.763-0.392z"></path>
</symbol>
<symbol id="icon-specials-white" viewBox="0 0 32 32">
<title>specials-white</title>
<path class="path1" fill="#fff" d="M24.104 16.625c-0.952-2.162-2.44-4.027-4.801-4.662 1.151-0.635 2.539-1.786 2.46-3.254-0.020-0.417-0.159-0.813-0.198-1.21s0.595-2.976 0.198-3.234-1.25-0.258-1.706-0.298-1.23 0.278-1.805 0.655c-1.349 0.893-2.024-0.635-2.678-1.587-0.357-0.536-1.25 0.397-1.587 0.575s-0.913 0.417-1.389 0.179c-0.269-0.15-0.499-0.335-0.692-0.553-0.201-0.201-0.419-0.657-0.736-0.638-0.794 0.020-0.694 1.071-0.675 1.567 0.020 0.932-0.020 1.865-0.079 2.777s-0.218 1.607-0.020 2.401c0.377 1.369 1.567 2.321 2.797 2.896-3.194 1.111-5.079 3.571-6.15 6.686-0.833 2.44-1.27 5.059-1.686 7.598-0.079 0.476-0.159 0.992-0.060 1.468s1.19 0.714 1.726 0.794c1.984 0.278 4.007 0.436 5.991 0.575s9.304 0.060 11.308-0.714c0.754-0.298 1.369-0.595 1.488-1.448 0.139-1.29-0.555-7.955-1.706-10.574zM11.745 9.364c-0.436-0.873-0.238-2.202-0.119-2.817l0.079-0.397c0.037-0.226 0.058-0.486 0.058-0.751 0-0.148-0.007-0.294-0.019-0.438 0.993 0.753 2.243-0.021 3.096-0.636 0.436 0.675 1.091 1.924 2.024 1.944 0.456 0.020 1.032-0.278 1.448-0.476 0.297-0.152 0.55-0.31 0.788-0.487-0.035 0.030 0.203-0.208 0.164-0.208 0.456 0.020 1.012 0.198 1.488 0.278-0.119 0.734-0.436 1.468-0.377 2.222s0.179 1.349-0.139 2.043c-0.575 1.21-1.984 1.686-3.234 1.805 0.582-0.438 1.019-1.042 1.243-1.741 0.083-0.237 0.127-0.482 0.127-0.738 0-0.105-0.007-0.209-0.022-0.31-0.137-0.623-0.455-0.048-0.554 0.23-0.238 0.645-0.553 1.203-0.943 1.7-0.168 0.264-0.466 0.899-0.803 0.879h-0.397l-0.238-0.615c-0.119-0.317-0.218-0.635-0.337-0.932-0.337-0.675-0.496-1.607-0.635-2.341-0.079-0.377-0.139-0.774-0.218-1.151s-0.417-0.238-0.476 0.179c-0.015 0.166-0.024 0.358-0.024 0.553 0 0.711 0.118 1.394 0.335 2.031 0.078 0.333 0.2 0.664 0.356 0.975 0.135 0.302 0.281 0.576 0.442 0.838 0.021 0.028 0.259 0.286 0.259 0.385-1.309-0.218-2.758-0.813-3.373-2.024zM15.256 13.034c1.349-0.159 2.817-0.179 4.107 0.317 2.043 0.794 3.353 2.976 4.126 5.118 0.079 0.278 0.139 0.536 0.218 0.813-0.932-0.833-2.222-1.329-3.313-1.885-0.774-0.377-1.587-0.694-2.381-1.012l-2.42-0.992c-1.349-0.536-2.936-1.091-4.404-0.913 1.19-0.833 2.619-1.27 4.067-1.448zM10.554 14.958c-0.060 0.040 0-0.020 0.377-0.317 0.337 0.179 0.794 0.159 1.151 0.238 0.547 0.136 0.997 0.279 1.435 0.445 0.747 0.269 1.58 0.606 2.394 0.963l2.718 1.171c1.151 0.476 2.301 0.913 3.432 1.428l1.111 0.496c0.185 0.102 0.401 0.196 0.627 0.27q0.147 0.484 0.226 0.96c0.238 1.19 0.377 2.381 0.536 3.591-0.655-0.397-1.547-0.555-2.262-0.794l-2.024-0.734c-1.21-0.436-2.46-0.913-3.631-1.448s-2.321-1.032-3.452-1.587c-0.833-0.357-1.666-0.754-2.48-1.19s-1.25-0.813-1.885-0.913c0.372-1.023 0.963-1.889 1.721-2.574zM11.725 28.012l-2.996-0.337-1.488-0.159c-0.218-0.020-0.575 0.040-0.694-0.198s-0.060-1.131 0-1.587c0.139-0.893 0.357-1.766 0.575-2.639 0.079 0.377 0.932 0.813 1.21 0.972l1.984 1.21c0.955 0.578 2.077 1.143 3.243 1.624 1.15 0.484 2.415 0.937 3.709 1.322-0.002 0.075-0.321 0.079-0.641 0.079-1.728 0-3.431-0.105-5.104-0.308zM24.422 27.397c0.139-0.298-0.079-1.905-0.734-1.428-0.258 0.179 0.060 1.508 0.278 1.686-0.232 0.076-0.507 0.139-0.79 0.176 0.095-0.295 0.095-2.1-0.619-1.723-0.258 0.139-0.119 0.635-0.079 0.853s0.020 0.357 0.040 0.555 0.020 0.258 0 0.397l-0.555 0.040c0.060-0.337 0.040-0.734-0.298-0.913s-0.456 0.734-0.417 0.972l-0.555 0.040c0.040-0.317-0.397-1.29-0.754-0.754-0.099 0.159 0 0.357-0.020 0.536 0.009 0.106 0.023 0.201 0.042 0.294-0.098 0.001-0.208 0.011-0.32 0.011-0.148 0-0.291-0.017-0.429-0.050-1.297-0.374-2.566-0.89-3.836-1.366s-2.401-0.992-3.611-1.508-1.766-0.873-2.658-1.309l-0.675-0.317c-0.218-0.099-1.051-0.675-1.27-0.536 0.476-1.805 1.012-3.631 1.627-5.396 0.417 0.635 1.329 1.032 1.944 1.428s1.547 0.913 2.361 1.349 2.182 1.071 3.293 1.587c1.064 0.503 2.353 0.996 3.683 1.395l2.129 0.608c0.655 0.179 1.726 0.615 2.401 0.357 0.099 0.833 0.298 2.48-0.198 2.996z"></path>
<path class="path2" fill="#fff" d="M13.431 18.529c0.099-0.079 0.060-0.020 0 0 0.436-0.238 0.040-0.813-0.357-0.595s0.040 0.893 0.357 0.595z"></path>
<path class="path3" fill="#fff" d="M15.335 17.597c0.476-0.060 0.337-0.734-0.079-0.774s-0.456 0.853 0.079 0.774z"></path>
<path class="path4" fill="#fff" d="M16.863 18.41c0.436-0.238 0.040-0.813-0.357-0.595s-0.099 0.833 0.357 0.595z"></path>
<path class="path5" fill="#fff" d="M16.764 19.779c0.040 0 0.099 0 0 0s-0.397 0.496-0.020 0.516 0.357-0.476 0.020-0.516z"></path>
<path class="path6" fill="#fff" d="M15.197 19.482v0c0.436-0.179 0.139-0.794-0.278-0.734s-0.218 0.932 0.278 0.734z"></path>
<path class="path7" fill="#fff" d="M11.189 17.538c0.456-0.060 0.337-0.774-0.119-0.694s-0.317 0.754 0.119 0.694z"></path>
<path class="path8" fill="#fff" d="M7.777 25.751c-0.476 0.099-0.317 0.833 0.179 0.734s0.278-0.833-0.179-0.734z"></path>
<path class="path9" fill="#fff" d="M9.82 26.346c-0.337-0.139-0.536 0.397-0.198 0.536s0.516-0.417 0.198-0.536z"></path>
<path class="path10" fill="#fff" d="M22.18 21.604c0.496-0.060 0.337-0.774-0.139-0.714s-0.436 0.774 0.139 0.714z"></path>
</symbol>
<symbol id="icon-specials" viewBox="0 0 32 32">
<title>specials</title>
<path class="path1" fill="#533a25" d="M24.104 16.625c-0.952-2.162-2.44-4.027-4.801-4.662 1.151-0.635 2.539-1.786 2.46-3.254-0.020-0.417-0.159-0.813-0.198-1.21s0.595-2.976 0.198-3.234-1.25-0.258-1.706-0.298-1.23 0.278-1.805 0.655c-1.349 0.893-2.024-0.635-2.678-1.587-0.357-0.536-1.25 0.397-1.587 0.575s-0.913 0.417-1.389 0.179c-0.269-0.15-0.499-0.335-0.692-0.553-0.201-0.201-0.419-0.657-0.736-0.638-0.794 0.020-0.694 1.071-0.675 1.567 0.020 0.932-0.020 1.865-0.079 2.777s-0.218 1.607-0.020 2.401c0.377 1.369 1.567 2.321 2.797 2.896-3.194 1.111-5.079 3.571-6.15 6.686-0.833 2.44-1.27 5.059-1.686 7.598-0.079 0.476-0.159 0.992-0.060 1.468s1.19 0.714 1.726 0.794c1.984 0.278 4.007 0.436 5.991 0.575s9.304 0.060 11.308-0.714c0.754-0.298 1.369-0.595 1.488-1.448 0.139-1.29-0.555-7.955-1.706-10.574zM11.745 9.364c-0.436-0.873-0.238-2.202-0.119-2.817l0.079-0.397c0.037-0.226 0.058-0.486 0.058-0.751 0-0.148-0.007-0.294-0.019-0.438 0.993 0.753 2.243-0.021 3.096-0.636 0.436 0.675 1.091 1.924 2.024 1.944 0.456 0.020 1.032-0.278 1.448-0.476 0.297-0.152 0.55-0.31 0.788-0.487-0.035 0.030 0.203-0.208 0.164-0.208 0.456 0.020 1.012 0.198 1.488 0.278-0.119 0.734-0.436 1.468-0.377 2.222s0.179 1.349-0.139 2.043c-0.575 1.21-1.984 1.686-3.234 1.805 0.582-0.438 1.019-1.042 1.243-1.741 0.083-0.237 0.127-0.482 0.127-0.738 0-0.105-0.007-0.209-0.022-0.31-0.137-0.623-0.455-0.048-0.554 0.23-0.238 0.645-0.553 1.203-0.943 1.7-0.168 0.264-0.466 0.899-0.803 0.879h-0.397l-0.238-0.615c-0.119-0.317-0.218-0.635-0.337-0.932-0.337-0.675-0.496-1.607-0.635-2.341-0.079-0.377-0.139-0.774-0.218-1.151s-0.417-0.238-0.476 0.179c-0.015 0.166-0.024 0.358-0.024 0.553 0 0.711 0.118 1.394 0.335 2.031 0.078 0.333 0.2 0.664 0.356 0.975 0.135 0.302 0.281 0.576 0.442 0.838 0.021 0.028 0.259 0.286 0.259 0.385-1.309-0.218-2.758-0.813-3.373-2.024zM15.256 13.034c1.349-0.159 2.817-0.179 4.107 0.317 2.043 0.794 3.353 2.976 4.126 5.118 0.079 0.278 0.139 0.536 0.218 0.813-0.932-0.833-2.222-1.329-3.313-1.885-0.774-0.377-1.587-0.694-2.381-1.012l-2.42-0.992c-1.349-0.536-2.936-1.091-4.404-0.913 1.19-0.833 2.619-1.27 4.067-1.448zM10.554 14.958c-0.060 0.040 0-0.020 0.377-0.317 0.337 0.179 0.794 0.159 1.151 0.238 0.547 0.136 0.997 0.279 1.435 0.445 0.747 0.269 1.58 0.606 2.394 0.963l2.718 1.171c1.151 0.476 2.301 0.913 3.432 1.428l1.111 0.496c0.185 0.102 0.401 0.196 0.627 0.27q0.147 0.484 0.226 0.96c0.238 1.19 0.377 2.381 0.536 3.591-0.655-0.397-1.547-0.555-2.262-0.794l-2.024-0.734c-1.21-0.436-2.46-0.913-3.631-1.448s-2.321-1.032-3.452-1.587c-0.833-0.357-1.666-0.754-2.48-1.19s-1.25-0.813-1.885-0.913c0.372-1.023 0.963-1.889 1.721-2.574zM11.725 28.012l-2.996-0.337-1.488-0.159c-0.218-0.020-0.575 0.040-0.694-0.198s-0.060-1.131 0-1.587c0.139-0.893 0.357-1.766 0.575-2.639 0.079 0.377 0.932 0.813 1.21 0.972l1.984 1.21c0.955 0.578 2.077 1.143 3.243 1.624 1.15 0.484 2.415 0.937 3.709 1.322-0.002 0.075-0.321 0.079-0.641 0.079-1.728 0-3.431-0.105-5.104-0.308zM24.422 27.397c0.139-0.298-0.079-1.905-0.734-1.428-0.258 0.179 0.060 1.508 0.278 1.686-0.232 0.076-0.507 0.139-0.79 0.176 0.095-0.295 0.095-2.1-0.619-1.723-0.258 0.139-0.119 0.635-0.079 0.853s0.020 0.357 0.040 0.555 0.020 0.258 0 0.397l-0.555 0.040c0.060-0.337 0.040-0.734-0.298-0.913s-0.456 0.734-0.417 0.972l-0.555 0.040c0.040-0.317-0.397-1.29-0.754-0.754-0.099 0.159 0 0.357-0.020 0.536 0.009 0.106 0.023 0.201 0.042 0.294-0.098 0.001-0.208 0.011-0.32 0.011-0.148 0-0.291-0.017-0.429-0.050-1.297-0.374-2.566-0.89-3.836-1.366s-2.401-0.992-3.611-1.508-1.766-0.873-2.658-1.309l-0.675-0.317c-0.218-0.099-1.051-0.675-1.27-0.536 0.476-1.805 1.012-3.631 1.627-5.396 0.417 0.635 1.329 1.032 1.944 1.428s1.547 0.913 2.361 1.349 2.182 1.071 3.293 1.587c1.064 0.503 2.353 0.996 3.683 1.395l2.129 0.608c0.655 0.179 1.726 0.615 2.401 0.357 0.099 0.833 0.298 2.48-0.198 2.996z"></path>
<path class="path2" fill="#533a25" d="M13.431 18.529c0.099-0.079 0.060-0.020 0 0 0.436-0.238 0.040-0.813-0.357-0.595s0.040 0.893 0.357 0.595z"></path>
<path class="path3" fill="#533a25" d="M15.335 17.597c0.476-0.060 0.337-0.734-0.079-0.774s-0.456 0.853 0.079 0.774z"></path>
<path class="path4" fill="#533a25" d="M16.863 18.41c0.436-0.238 0.040-0.813-0.357-0.595s-0.099 0.833 0.357 0.595z"></path>
<path class="path5" fill="#533a25" d="M16.764 19.779c0.040 0 0.099 0 0 0s-0.397 0.496-0.020 0.516 0.357-0.476 0.020-0.516z"></path>
<path class="path6" fill="#533a25" d="M15.197 19.482v0c0.436-0.179 0.139-0.794-0.278-0.734s-0.218 0.932 0.278 0.734z"></path>
<path class="path7" fill="#533a25" d="M11.189 17.538c0.456-0.060 0.337-0.774-0.119-0.694s-0.317 0.754 0.119 0.694z"></path>
<path class="path8" fill="#533a25" d="M7.777 25.751c-0.476 0.099-0.317 0.833 0.179 0.734s0.278-0.833-0.179-0.734z"></path>
<path class="path9" fill="#533a25" d="M9.82 26.346c-0.337-0.139-0.536 0.397-0.198 0.536s0.516-0.417 0.198-0.536z"></path>
<path class="path10" fill="#533a25" d="M22.18 21.604c0.496-0.060 0.337-0.774-0.139-0.714s-0.436 0.774 0.139 0.714z"></path>
</symbol>
<symbol id="icon-treats-white" viewBox="0 0 32 32">
<title>treats-white</title>
<path class="path1" fill="#fff" d="M14.678 0.831c-7.647 0-13.648 6.333-13.648 14.412 0 8.345 6.117 15.127 13.648 15.127 3.774 0 7.697-1.679 10.805-4.605s4.937-6.799 4.937-10.523c0-7.547-7.497-14.412-15.742-14.412zM14.678 28.725c-6.616 0-12.002-6.051-12.002-13.482 0-7.165 5.27-12.767 12.002-12.767 7.248 0 14.097 6.201 14.097 12.767s-6.982 13.482-14.097 13.482z"></path>
<path class="path2" fill="#fff" d="M13.265 13.033c-0.848 0-1.496 0.748-1.496 1.745s0.615 1.596 1.496 1.596 1.529-0.665 1.529-1.596-0.665-1.745-1.529-1.745z"></path>
<path class="path3" fill="#fff" d="M19.084 6.683h-0.482c-0.025-0.001-0.055-0.002-0.085-0.002-0.511 0-0.974 0.204-1.312 0.534l-0.099 0.083c-0.266 0.249-0.715 0.665-0.715 1.313s0.515 1.213 0.748 1.446 0.948 0.698 1.446 0.698 1.081-0.432 1.346-0.698l0.050-0.050c0.34-0.34 0.55-0.809 0.55-1.328 0-0.024-0-0.048-0.001-0.072 0-0.046 0-0.113 0-0.179 0.017-0.382 0.050-0.948-0.399-1.38-0.261-0.228-0.605-0.367-0.982-0.367-0.023 0-0.046 0.001-0.069 0.002z"></path>
<path class="path4" fill="#fff" d="M11.62 8.295c0.881 0 1.629-0.781 1.629-1.712s-0.665-1.479-1.629-1.479-1.612 0.615-1.612 1.479 0.731 1.712 1.612 1.712z"></path>
<path class="path5" fill="#fff" d="M24.752 10.656c-0.884 0.009-1.597 0.727-1.597 1.612 0 0.018 0 0.035 0.001 0.053-0 0.945 0.715 1.71 1.596 1.71s1.762-0.815 1.762-1.712-0.831-1.662-1.762-1.662z"></path>
<path class="path6" fill="#fff" d="M6.699 12.351c-0.005-0-0.011-0-0.017-0-0.863 0-1.563 0.7-1.563 1.563 0 0.018 0 0.035 0.001 0.053-0 0.007-0 0.019-0 0.031 0 0.876 0.705 1.587 1.579 1.596 0.006 0 0.012 0 0.018 0 0.903 0 1.636-0.727 1.646-1.628 0-0.001 0-0.001 0-0.002 0-0.891-0.722-1.612-1.612-1.612-0.018 0-0.035 0-0.052 0.001z"></path>
<path class="path7" fill="#fff" d="M25.45 19.682c0.004-0.048 0.006-0.105 0.006-0.162 0-0.379-0.094-0.735-0.261-1.047-0.447-0.696-1.206-1.174-2.080-1.234-0.030-0.001-0.056-0.002-0.081-0.002-0.43 0-0.835 0.111-1.186 0.307-0.369 0.217-0.679 0.526-0.895 0.896-0.214 0.37-0.338 0.8-0.339 1.258 0.018 0.442 0.158 0.848 0.388 1.189l-0.005 0.025c0.226 0.35 0.535 0.627 0.901 0.809l0.080 0.039c0.313 0.216 0.696 0.35 1.11 0.366 0.046 0.003 0.096 0.004 0.146 0.004 0.404 0 0.784-0.1 1.118-0.276 0.358-0.224 0.657-0.538 0.862-0.912 0.147-0.281 0.23-0.598 0.23-0.935 0-0.062-0.003-0.123-0.008-0.183z"></path>
<path class="path8" fill="#fff" d="M18.186 22.192c-0.864 0-1.779 0.648-1.779 1.612s0.864 1.745 1.779 1.745 1.762-0.848 1.762-1.745-0.898-1.612-1.762-1.612z"></path>
<path class="path9" fill="#fff" d="M11.786 21.112c-0.266-0.266-0.731-0.731-1.38-0.731-1.187 0.053-2.134 1.006-2.178 2.19-0 0.636 0.465 1.018 0.698 1.234l0.133 0.116 0.083 0.1c0.233 0.249 0.615 0.648 1.247 0.648s1.031-0.416 1.263-0.648l0.083-0.083c0.379-0.329 0.621-0.809 0.632-1.345 0.001-0.019 0.001-0.039 0.001-0.060 0-0.535-0.216-1.020-0.566-1.372z"></path>
</symbol>
<symbol id="icon-treats" viewBox="0 0 32 32">
<title>treats</title>
<path class="path1" fill="#533a25" d="M14.678 0.831c-7.647 0-13.648 6.333-13.648 14.412 0 8.345 6.117 15.127 13.648 15.127 3.774 0 7.697-1.679 10.805-4.605s4.937-6.799 4.937-10.523c0-7.547-7.497-14.412-15.742-14.412zM14.678 28.725c-6.616 0-12.002-6.051-12.002-13.482 0-7.165 5.27-12.767 12.002-12.767 7.248 0 14.097 6.201 14.097 12.767s-6.982 13.482-14.097 13.482z"></path>
<path class="path2" fill="#533a25" d="M13.265 13.033c-0.848 0-1.496 0.748-1.496 1.745s0.615 1.596 1.496 1.596 1.529-0.665 1.529-1.596-0.665-1.745-1.529-1.745z"></path>
<path class="path3" fill="#533a25" d="M19.084 6.683h-0.482c-0.025-0.001-0.055-0.002-0.085-0.002-0.511 0-0.974 0.204-1.312 0.534l-0.099 0.083c-0.266 0.249-0.715 0.665-0.715 1.313s0.515 1.213 0.748 1.446 0.948 0.698 1.446 0.698 1.081-0.432 1.346-0.698l0.050-0.050c0.34-0.34 0.55-0.809 0.55-1.328 0-0.024-0-0.048-0.001-0.072 0-0.046 0-0.113 0-0.179 0.017-0.382 0.050-0.948-0.399-1.38-0.261-0.228-0.605-0.367-0.982-0.367-0.023 0-0.046 0.001-0.069 0.002z"></path>
<path class="path4" fill="#533a25" d="M11.62 8.295c0.881 0 1.629-0.781 1.629-1.712s-0.665-1.479-1.629-1.479-1.612 0.615-1.612 1.479 0.731 1.712 1.612 1.712z"></path>
<path class="path5" fill="#533a25" d="M24.752 10.656c-0.884 0.009-1.597 0.727-1.597 1.612 0 0.018 0 0.035 0.001 0.053-0 0.945 0.715 1.71 1.596 1.71s1.762-0.815 1.762-1.712-0.831-1.662-1.762-1.662z"></path>
<path class="path6" fill="#533a25" d="M6.699 12.351c-0.005-0-0.011-0-0.017-0-0.863 0-1.563 0.7-1.563 1.563 0 0.018 0 0.035 0.001 0.053-0 0.007-0 0.019-0 0.031 0 0.876 0.705 1.587 1.579 1.596 0.006 0 0.012 0 0.018 0 0.903 0 1.636-0.727 1.646-1.628 0-0.001 0-0.001 0-0.002 0-0.891-0.722-1.612-1.612-1.612-0.018 0-0.035 0-0.052 0.001z"></path>
<path class="path7" fill="#533a25" d="M25.45 19.682c0.004-0.048 0.006-0.105 0.006-0.162 0-0.379-0.094-0.735-0.261-1.047-0.447-0.696-1.206-1.174-2.080-1.234-0.030-0.001-0.056-0.002-0.081-0.002-0.43 0-0.835 0.111-1.186 0.307-0.369 0.217-0.679 0.526-0.895 0.896-0.214 0.37-0.338 0.8-0.339 1.258 0.018 0.442 0.158 0.848 0.388 1.189l-0.005 0.025c0.226 0.35 0.535 0.627 0.901 0.809l0.080 0.039c0.313 0.216 0.696 0.35 1.11 0.366 0.046 0.003 0.096 0.004 0.146 0.004 0.404 0 0.784-0.1 1.118-0.276 0.358-0.224 0.657-0.538 0.862-0.912 0.147-0.281 0.23-0.598 0.23-0.935 0-0.062-0.003-0.123-0.008-0.183z"></path>
<path class="path8" fill="#533a25" d="M18.186 22.192c-0.864 0-1.779 0.648-1.779 1.612s0.864 1.745 1.779 1.745 1.762-0.848 1.762-1.745-0.898-1.612-1.762-1.612z"></path>
<path class="path9" fill="#533a25" d="M11.786 21.112c-0.266-0.266-0.731-0.731-1.38-0.731-1.187 0.053-2.134 1.006-2.178 2.19-0 0.636 0.465 1.018 0.698 1.234l0.133 0.116 0.083 0.1c0.233 0.249 0.615 0.648 1.247 0.648s1.031-0.416 1.263-0.648l0.083-0.083c0.379-0.329 0.621-0.809 0.632-1.345 0.001-0.019 0.001-0.039 0.001-0.060 0-0.535-0.216-1.020-0.566-1.372z"></path>
</symbol>
</defs>
</svg>
