<svg id="Layer_1" data-name="Layer 1" xmlns="http://www.w3.org/2000/svg" width="2.7in" height="2.7in" viewBox="0 0 192.5 192.5"><title>treats-white</title><path d="M88.3,5C42.3,5,6.2,43.1,6.2,91.7c0,50.2,36.8,91,82.1,91,22.7,0,46.3-10.1,65-27.7S183,114.1,183,91.7C183,46.3,137.9,5,88.3,5Zm0,167.8c-39.8,0-72.2-36.4-72.2-81.1,0-43.1,31.7-76.8,72.2-76.8,43.6,0,84.8,37.3,84.8,76.8S131.1,172.8,88.3,172.8Z" fill="#fff"/><path d="M79.8,78.4c-5.1,0-9,4.5-9,10.5s3.7,9.6,9,9.6,9.2-4,9.2-9.6S85,78.4,79.8,78.4Z" fill="#fff"/><path d="M114.8,40.2h-2.9a11.3,11.3,0,0,0-8.4,3.2l-.6.5c-1.6,1.5-4.3,4-4.3,7.9s3.1,7.3,4.5,8.7,5.7,4.2,8.7,4.2,6.5-2.6,8.1-4.2l.3-.3a11.3,11.3,0,0,0,3.3-8.4c0-.3,0-.7,0-1.1.1-2.3.3-5.7-2.4-8.3A9,9,0,0,0,114.8,40.2Z" fill="#fff"/><path d="M69.9,49.9c5.3,0,9.8-4.7,9.8-10.3s-4-8.9-9.8-8.9-9.7,3.7-9.7,8.9S64.6,49.9,69.9,49.9Z" fill="#fff"/><path d="M148.9,64.1a9.7,9.7,0,0,0-9.6,10c0,5.7,4.3,10.3,9.6,10.3s10.6-4.9,10.6-10.3S154.5,64.1,148.9,64.1Z" fill="#fff"/><path d="M40.3,74.3A9.4,9.4,0,0,0,30.8,84a9.6,9.6,0,0,0,9.5,9.8,9.9,9.9,0,0,0,10-9.8A9.7,9.7,0,0,0,40.3,74.3Z" fill="#fff"/><path d="M153.1,118.4a13.4,13.4,0,0,0-1.5-7.2,16.2,16.2,0,0,0-12.6-7.5,14.7,14.7,0,0,0-7.5,1.8A15,15,0,0,0,126,111a15.2,15.2,0,0,0-2,7.5,13.8,13.8,0,0,0,2.3,7.1v.2a13.6,13.6,0,0,0,5.5,4.9l.4.2a12.7,12.7,0,0,0,6.7,2.2,14.4,14.4,0,0,0,7.5-1.6,14.8,14.8,0,0,0,5.3-5.6,12.1,12.1,0,0,0,1.3-6.6Z" fill="#fff"/><path d="M109.4,133.5c-5.2,0-10.7,3.9-10.7,9.7s5.2,10.5,10.7,10.5,10.6-5.1,10.6-10.5S114.6,133.5,109.4,133.5Z" fill="#fff"/><path d="M70.9,127c-1.6-1.6-4.4-4.4-8.3-4.4a13.7,13.7,0,0,0-13.1,13.2c0,3.8,2.8,6.1,4.2,7.4l.8.7.5.6c1.4,1.5,3.7,3.9,7.5,3.9s6.2-2.5,7.6-3.9l.5-.5a11,11,0,0,0,3.8-8.1,11.7,11.7,0,0,0-3.4-8.6Z" fill="#fff"/></svg>